<mxfile host="app.diagrams.net" agent="Mozilla/5.0 (Windows NT 10.0; Win64; x64) AppleWebKit/537.36 (KHTML, like Gecko) Chrome/130.0.0.0 Safari/537.36 Edg/130.0.0.0" version="24.7.17">
  <diagram name="Kubernetes Architecture" id="a1BI-9kojV3yxO4POUfj">
    <mxGraphModel dx="1501" dy="1957" grid="1" gridSize="10" guides="1" tooltips="1" connect="1" arrows="1" fold="1" page="1" pageScale="1" pageWidth="827" pageHeight="1169" math="0" shadow="0">
      <root>
        <mxCell id="0" />
        <mxCell id="1" parent="0" />
        <mxCell id="9-LcOYTj-e3dCZhovcsv-50" value="Cluster Angers" style="swimlane;fillColor=#E3F2FD;" vertex="1" parent="1">
          <mxGeometry x="20" y="20" width="400" height="350" as="geometry" />
        </mxCell>
        <mxCell id="9-LcOYTj-e3dCZhovcsv-51" value="Controller 1" style="rounded=1;whiteSpace=wrap;html=1;fillColor=#BBDEFB" vertex="1" parent="9-LcOYTj-e3dCZhovcsv-50">
          <mxGeometry x="80" y="60" width="120" height="40" as="geometry" />
        </mxCell>
        <mxCell id="9-LcOYTj-e3dCZhovcsv-52" value="Controller 2" style="rounded=1;whiteSpace=wrap;html=1;fillColor=#BBDEFB" vertex="1" parent="9-LcOYTj-e3dCZhovcsv-50">
          <mxGeometry x="220" y="60" width="120" height="40" as="geometry" />
        </mxCell>
        <mxCell id="9-LcOYTj-e3dCZhovcsv-53" value="Worker 1" style="rounded=1;whiteSpace=wrap;html=1;fillColor=#B3E5FC" vertex="1" parent="9-LcOYTj-e3dCZhovcsv-50">
          <mxGeometry x="80" y="140" width="120" height="40" as="geometry" />
        </mxCell>
        <mxCell id="9-LcOYTj-e3dCZhovcsv-54" value="Worker 2" style="rounded=1;whiteSpace=wrap;html=1;fillColor=#B3E5FC" vertex="1" parent="9-LcOYTj-e3dCZhovcsv-50">
          <mxGeometry x="220" y="140" width="120" height="40" as="geometry" />
        </mxCell>
        <mxCell id="9-LcOYTj-e3dCZhovcsv-55" value="Worker 3" style="rounded=1;whiteSpace=wrap;html=1;fillColor=#B3E5FC" vertex="1" parent="9-LcOYTj-e3dCZhovcsv-50">
          <mxGeometry x="80" y="220" width="120" height="40" as="geometry" />
        </mxCell>
        <mxCell id="9-LcOYTj-e3dCZhovcsv-56" value="Worker 4" style="rounded=1;whiteSpace=wrap;html=1;fillColor=#B3E5FC" vertex="1" parent="9-LcOYTj-e3dCZhovcsv-50">
          <mxGeometry x="220" y="220" width="120" height="40" as="geometry" />
        </mxCell>
        <mxCell id="9-LcOYTj-e3dCZhovcsv-57" value="PVC Replica" style="shape=ellipse;whiteSpace=wrap;html=1;fillColor=#81D4FA" vertex="1" parent="9-LcOYTj-e3dCZhovcsv-50">
          <mxGeometry x="100" y="300" width="80" height="40" as="geometry" />
        </mxCell>
        <mxCell id="9-LcOYTj-e3dCZhovcsv-58" value="PVC Replica&amp;nbsp;" style="shape=ellipse;whiteSpace=wrap;html=1;fillColor=#81D4FA" vertex="1" parent="9-LcOYTj-e3dCZhovcsv-50">
          <mxGeometry x="240" y="300" width="80" height="40" as="geometry" />
        </mxCell>
        <mxCell id="9-LcOYTj-e3dCZhovcsv-67" style="edgeStyle=orthogonalEdgeStyle;exitX=0.5;exitY=1;exitDx=0;exitDy=0;" edge="1" parent="9-LcOYTj-e3dCZhovcsv-50" source="9-LcOYTj-e3dCZhovcsv-53">
          <mxGeometry relative="1" as="geometry">
            <mxPoint x="200" y="195.0000000000001" as="sourcePoint" />
            <mxPoint x="469" y="445" as="targetPoint" />
            <Array as="points">
              <mxPoint x="140" y="200" />
              <mxPoint x="470" y="200" />
              <mxPoint x="470" y="445" />
            </Array>
          </mxGeometry>
        </mxCell>
        <mxCell id="9-LcOYTj-e3dCZhovcsv-69" style="edgeStyle=orthogonalEdgeStyle;exitX=0.5;exitY=1;exitDx=0;exitDy=0;" edge="1" parent="9-LcOYTj-e3dCZhovcsv-50" source="9-LcOYTj-e3dCZhovcsv-55">
          <mxGeometry relative="1" as="geometry">
            <mxPoint x="200" y="280" as="sourcePoint" />
            <mxPoint x="469" y="450" as="targetPoint" />
            <Array as="points">
              <mxPoint x="140" y="290" />
              <mxPoint x="470" y="290" />
              <mxPoint x="470" y="450" />
            </Array>
          </mxGeometry>
        </mxCell>
        <mxCell id="9-LcOYTj-e3dCZhovcsv-59" value="Cluster Nantes" style="swimlane;fillColor=#FFF3E0;" vertex="1" parent="1">
          <mxGeometry x="600" y="20" width="300" height="300" as="geometry" />
        </mxCell>
        <mxCell id="9-LcOYTj-e3dCZhovcsv-60" value="Controller 3" style="rounded=1;whiteSpace=wrap;html=1;fillColor=#FFCC80" vertex="1" parent="9-LcOYTj-e3dCZhovcsv-59">
          <mxGeometry x="40" y="50" width="120" height="40" as="geometry" />
        </mxCell>
        <mxCell id="9-LcOYTj-e3dCZhovcsv-61" value="Worker 5" style="rounded=1;whiteSpace=wrap;html=1;fillColor=#FFE0B2" vertex="1" parent="9-LcOYTj-e3dCZhovcsv-59">
          <mxGeometry x="40" y="120" width="120" height="40" as="geometry" />
        </mxCell>
        <mxCell id="9-LcOYTj-e3dCZhovcsv-62" value="Worker 6" style="rounded=1;whiteSpace=wrap;html=1;fillColor=#FFE0B2" vertex="1" parent="9-LcOYTj-e3dCZhovcsv-59">
          <mxGeometry x="170" y="120" width="120" height="40" as="geometry" />
        </mxCell>
        <mxCell id="9-LcOYTj-e3dCZhovcsv-63" value="PVC Replica&amp;nbsp;" style="shape=ellipse;whiteSpace=wrap;html=1;fillColor=#FFAB91" vertex="1" parent="9-LcOYTj-e3dCZhovcsv-59">
          <mxGeometry x="110" y="220" width="80" height="40" as="geometry" />
        </mxCell>
        <mxCell id="9-LcOYTj-e3dCZhovcsv-64" value="Longhorn Storage" style="shape=cylinder;rounded=1;whiteSpace=wrap;html=1;fillColor=#C5E1A5" vertex="1" parent="1">
          <mxGeometry x="414" y="430" width="150" height="60" as="geometry" />
        </mxCell>
        <mxCell id="9-LcOYTj-e3dCZhovcsv-68" style="edgeStyle=orthogonalEdgeStyle;" edge="1" parent="1" source="9-LcOYTj-e3dCZhovcsv-54" target="9-LcOYTj-e3dCZhovcsv-64">
          <mxGeometry relative="1" as="geometry" />
        </mxCell>
        <mxCell id="9-LcOYTj-e3dCZhovcsv-70" style="edgeStyle=orthogonalEdgeStyle;" edge="1" parent="1" source="9-LcOYTj-e3dCZhovcsv-56" target="9-LcOYTj-e3dCZhovcsv-64">
          <mxGeometry relative="1" as="geometry" />
        </mxCell>
        <mxCell id="9-LcOYTj-e3dCZhovcsv-72" style="edgeStyle=orthogonalEdgeStyle;" edge="1" parent="1" source="9-LcOYTj-e3dCZhovcsv-61" target="9-LcOYTj-e3dCZhovcsv-64">
          <mxGeometry relative="1" as="geometry" />
        </mxCell>
        <mxCell id="9-LcOYTj-e3dCZhovcsv-73" style="edgeStyle=orthogonalEdgeStyle;" edge="1" parent="1" source="9-LcOYTj-e3dCZhovcsv-62" target="9-LcOYTj-e3dCZhovcsv-64">
          <mxGeometry relative="1" as="geometry">
            <Array as="points">
              <mxPoint x="830" y="200" />
              <mxPoint x="489" y="200" />
            </Array>
          </mxGeometry>
        </mxCell>
        <mxCell id="9-LcOYTj-e3dCZhovcsv-74" style="edgeStyle=orthogonalEdgeStyle;dashed=1;" edge="1" parent="1" source="9-LcOYTj-e3dCZhovcsv-50" target="9-LcOYTj-e3dCZhovcsv-59">
          <mxGeometry relative="1" as="geometry">
            <Array as="points">
              <mxPoint x="540" y="60" />
              <mxPoint x="540" y="60" />
            </Array>
          </mxGeometry>
        </mxCell>
        <mxCell id="9-LcOYTj-e3dCZhovcsv-123" value="Interconnexion" style="edgeLabel;html=1;align=center;verticalAlign=middle;resizable=0;points=[];" vertex="1" connectable="0" parent="9-LcOYTj-e3dCZhovcsv-74">
          <mxGeometry x="-0.2275" y="1" relative="1" as="geometry">
            <mxPoint as="offset" />
          </mxGeometry>
        </mxCell>
        <mxCell id="9-LcOYTj-e3dCZhovcsv-120" value="Règle de déploiement des pods" style="rounded=1;whiteSpace=wrap;html=1;fillColor=#BDBDBD;" vertex="1" parent="1">
          <mxGeometry x="420" y="-110" width="150" height="40" as="geometry" />
        </mxCell>
        <mxCell id="9-LcOYTj-e3dCZhovcsv-121" value="Priorité de deploiement" style="edgeStyle=orthogonalEdgeStyle;endArrow=block;entryX=0.5;entryY=0;entryDx=0;entryDy=0;" edge="1" parent="1" source="9-LcOYTj-e3dCZhovcsv-120" target="9-LcOYTj-e3dCZhovcsv-50">
          <mxGeometry relative="1" as="geometry">
            <mxPoint x="360" y="-140" as="targetPoint" />
            <Array as="points">
              <mxPoint x="495" y="-40" />
              <mxPoint x="220" y="-40" />
            </Array>
          </mxGeometry>
        </mxCell>
        <mxCell id="9-LcOYTj-e3dCZhovcsv-122" value="Déploiement secondaire (scénario de secours) " style="edgeStyle=orthogonalEdgeStyle;endArrow=block;dashed=1;entryX=0.5;entryY=0;entryDx=0;entryDy=0;" edge="1" parent="1" source="9-LcOYTj-e3dCZhovcsv-120" target="9-LcOYTj-e3dCZhovcsv-59">
          <mxGeometry relative="1" as="geometry">
            <mxPoint x="610" y="-140" as="targetPoint" />
            <Array as="points">
              <mxPoint x="495" y="-40" />
              <mxPoint x="750" y="-40" />
            </Array>
          </mxGeometry>
        </mxCell>
      </root>
    </mxGraphModel>
  </diagram>
</mxfile>
